#tb 0: 1/5
0,          0,          0,        1,    16384, 0x213f9ea8
0,          1,          1,        1,    16384, 0x8185fdb1
0,          2,          2,        1,    16384, 0xf03581d1
0,          3,          3,        1,    16384, 0x629cd573
0,          4,          4,        1,    16384, 0xfe7a5b63
0,          5,          5,        1,    16384, 0x4afc05b2
0,          6,          6,        1,    16384, 0x074b8515
0,          7,          7,        1,    16384, 0x17fde900
0,          8,          8,        1,    16384, 0x831bac76
0,          9,          9,        1,    16384, 0x2fb579f3
0,         10,         10,        1,    16384, 0x68762bed
